# xmcd
#
# Track frame offsets:
# 150
# 17412
# 43590
# 61015
# 86895
# 105615
# 126962
# 165950
# 193462
#
# Disc length: 2943 seconds
#
#
# Revision: 0
# Processed by: cddbd v1.5.2PL0 Copyright (c) Steve Scherf et al.
# Submitted via: FreeRIP 2.96 
#
DISCID=6f0b7d09
DTITLE=Bongzilla - Stash
DYEAR=1999
DGENRE=
TTITLE0=gestation
TTITLE1=sacred smoke
TTITLE2=american
TTITLE3=budgun/THC
TTITLE4=prohibition
TTITLE5=grog lady
TTITLE6=harvest
TTITLE7=POW
TTITLE8=under the sun
EXTD=
EXTT0=
EXTT1=
EXTT2=
EXTT3=
EXTT4=
EXTT5=
EXTT6=
EXTT7=
EXTT8=
PLAYORDER=
